<?xml version="1.0" encoding="UTF-8"?>
<svg id="Layer_2" data-name="Layer 2" xmlns="http://www.w3.org/2000/svg" viewBox="0 0 996.3 996.34">
  <defs>
    <style>
      .cls-1 {
        fill: #ff5001;
        stroke-width: 0px;
      }
    </style>
  </defs>
  <g id="Layer_1-2" data-name="Layer 1">
    <path class="cls-1" d="M886.07,110.23c-146.97-146.97-386.18-146.97-533.15,0-43.71,43.71-74.42,95.5-92.17,150.69-55.06,17.69-106.85,48.39-150.5,92.04-146.97,146.97-147.04,386.11,0,533.15,146.97,146.97,386.18,146.97,533.15,0,43.71-43.71,74.35-95.5,92.04-150.63,55.12-17.69,106.91-48.39,150.63-92.04,146.97-146.97,146.97-386.18,0-533.21ZM818.06,575.44c-19.55,19.55-41.28,35.63-64.48,48.2-106.46,57.82-242.73,41.79-332.72-48.2-89.93-89.93-105.95-226.19-48.2-332.66,12.56-23.2,28.65-45,48.2-64.54,109.54-109.48,287.73-109.48,397.2,0,109.54,109.54,109.54,287.73,0,397.2Z"/>
  </g>
</svg>